<svg version="1.1" id="Layer_1" xmlns="http://www.w3.org/2000/svg" xmlns:xlink="http://www.w3.org/1999/xlink" x="0px" y="0px" width="250px" height="50px"
	 viewBox="0 0 250 50" style="enable-background:new 0 0 250 50;" xml:space="preserve">
<style type="text/css">
	.st0{fill:#29ABE0;}
	.st1{fill:#259AC9;}
	.st2{fill:#FFFFFF;}
	.st3{fill:none;}
	.st4{fill-rule:evenodd;clip-rule:evenodd;fill:#FFDD00;}
	.st5{fill-rule:evenodd;clip-rule:evenodd;}
</style>
<g>
	<path class="st0" d="M239.3,50h-40.67H10.7C4.81,50,0,45.28,0,39.52V10.48C0,4.72,4.81,0,10.7,0h187.93h40.67
		c5.88,0,10.7,4.72,10.7,10.48v29.04C250,45.28,245.19,50,239.3,50z"/>
	<path class="st1" d="M239.3,50h-40.67V0h40.67c5.89,0,10.7,4.72,10.7,10.48v29.04C250,45.28,245.19,50,239.3,50z"/>
	<path class="st2" d="M224.39,35.54c0,0-11.66-6.57-11.66-13.3c0-4.38,2.95-7.28,5.99-7.28c3.59,0,5.67,3.83,5.67,3.83
		s1.76-3.83,5.99-3.83c3.43,0,5.59,3.76,5.59,7.2C235.97,28.89,224.39,35.54,224.39,35.54z"/>
</g>
<g>
	<path class="st2" d="M60.51,23.07c0.43-0.26,0.77-0.6,1.04-1.02c0.32-0.52,0.48-1.09,0.48-1.7c0-0.57-0.13-1.09-0.39-1.55
		c-0.26-0.45-0.59-0.82-0.97-1.1c-0.39-0.28-0.83-0.46-1.32-0.55c-0.49-0.08-1.22-0.13-2.18-0.13h-5v12.96h4.27
		c1.6-0.02,2.57-0.05,2.98-0.09c0.67-0.08,1.24-0.28,1.71-0.62c0.46-0.33,0.83-0.79,1.1-1.36c0.26-0.56,0.4-1.15,0.4-1.74
		c0-0.76-0.21-1.43-0.62-1.99C61.65,23.68,61.15,23.31,60.51,23.07z M59.06,21.62c-0.22,0.23-0.52,0.37-0.92,0.41
		c-0.22,0.03-0.81,0.04-1.77,0.04h-1.49V19.4h1.28c1.15,0,1.86,0.01,2.09,0.04c0.38,0.05,0.66,0.18,0.85,0.4
		c0.19,0.22,0.28,0.52,0.28,0.87C59.39,21.09,59.28,21.39,59.06,21.62z M54.89,24.44h1.85c1.36,0,1.91,0.1,2.14,0.18
		c0.31,0.11,0.55,0.29,0.71,0.53c0.16,0.24,0.24,0.54,0.24,0.9c0,0.42-0.1,0.75-0.31,1c-0.21,0.25-0.49,0.4-0.82,0.46
		c-0.23,0.05-0.82,0.08-1.66,0.08h-2.15V24.44z"/>
	<path class="st2" d="M70.09,24.53c0,1.29-0.06,2.11-0.16,2.44c-0.1,0.31-0.3,0.57-0.6,0.79c-0.29,0.21-0.62,0.32-1,0.32
		c-0.32,0-0.58-0.08-0.79-0.23c-0.2-0.15-0.35-0.36-0.43-0.63c-0.08-0.27-0.12-1.06-0.12-2.34v-4.35H64.4v5.94
		c0,0.88,0.11,1.58,0.32,2.09c0.22,0.51,0.58,0.91,1.07,1.2c0.48,0.28,1.04,0.42,1.66,0.42c0.6,0,1.18-0.15,1.71-0.44
		c0.42-0.22,0.79-0.52,1.09-0.89v1.12h2.41v-9.44h-2.59V24.53z"/>
	<path class="st2" d="M78.47,26.76l-2.02-6.24h-2.76l3.41,9.36c-0.14,0.49-0.33,0.88-0.57,1.18c-0.24,0.3-0.6,0.45-1.11,0.45
		c-0.29,0-0.61-0.04-0.97-0.11l-0.17-0.03l0.24,2.17l0.09,0.02c0.45,0.1,0.9,0.15,1.35,0.15c0.44,0,0.86-0.05,1.23-0.15
		c0.38-0.11,0.68-0.25,0.93-0.43c0.25-0.19,0.48-0.43,0.67-0.72c0.19-0.29,0.39-0.7,0.6-1.26l3.74-10.62h-2.69L78.47,26.76z"/>
	<path class="st2" d="M100.83,20.75c-0.47-0.29-1.05-0.43-1.71-0.43c-0.54,0-1.03,0.12-1.5,0.38c-0.42,0.23-0.81,0.56-1.18,0.99
		c-0.26-0.43-0.59-0.76-0.98-0.99c-0.43-0.25-0.94-0.38-1.53-0.38c-1,0-1.88,0.42-2.63,1.25v-1.04h-2.28v0.13h-0.1v9.32h2.59v-4.6
		c0-0.86,0.06-1.48,0.18-1.85c0.12-0.36,0.31-0.63,0.57-0.81c0.27-0.19,0.57-0.28,0.9-0.28c0.27,0,0.49,0.06,0.64,0.17
		c0.15,0.11,0.26,0.28,0.34,0.51c0.05,0.17,0.12,0.61,0.12,1.69v5.17h2.59v-4.54c0-0.85,0.06-1.48,0.19-1.86
		c0.11-0.36,0.3-0.65,0.57-0.84c0.26-0.19,0.55-0.29,0.85-0.29c0.41,0,0.7,0.15,0.89,0.46c0.15,0.24,0.22,0.81,0.22,1.7v5.38h2.59
		v-6c0-0.91-0.08-1.55-0.25-1.95C101.66,21.46,101.3,21.03,100.83,20.75z"/>
	<path class="st2" d="M107.7,20.31c-1.21,0-2.22,0.45-3,1.34c-0.78,0.89-1.18,2.12-1.18,3.67c0,1.3,0.3,2.39,0.9,3.24
		c0.77,1.08,1.95,1.62,3.51,1.62c0.98,0,1.82-0.24,2.5-0.72c0.66-0.47,1.16-1.17,1.47-2.09l0.05-0.14l-2.58-0.45l-0.03,0.11
		c-0.12,0.44-0.3,0.76-0.52,0.93c-0.23,0.19-0.51,0.28-0.84,0.28c-0.51,0-0.92-0.18-1.26-0.56c-0.32-0.37-0.49-0.85-0.53-1.47h5.85
		l0-0.13c0.03-1.89-0.35-3.31-1.12-4.24C110.12,20.78,109.04,20.31,107.7,20.31z M106.22,24.33c0.02-0.58,0.17-1.03,0.46-1.36
		c0.31-0.36,0.7-0.53,1.17-0.53c0.45,0,0.81,0.17,1.12,0.51c0.29,0.33,0.45,0.79,0.48,1.39H106.22z"/>
	<path class="st2" d="M125.91,28.57c-0.08-0.37-0.11-0.94-0.11-1.76l0.03-2.84c0-1.07-0.11-1.82-0.33-2.24
		c-0.22-0.41-0.6-0.76-1.13-1.03c-0.52-0.27-1.3-0.4-2.38-0.4c-1.17,0-2.07,0.22-2.67,0.67c-0.61,0.45-1.03,1.14-1.28,2.05
		l-0.04,0.13l2.36,0.44l0.03-0.1c0.13-0.4,0.31-0.68,0.51-0.83c0.21-0.16,0.51-0.23,0.9-0.23c0.59,0,0.98,0.09,1.17,0.26
		c0.19,0.18,0.29,0.48,0.29,0.9v0.16c-0.42,0.17-1.15,0.36-2.17,0.56c-0.81,0.16-1.44,0.36-1.89,0.58
		c-0.45,0.23-0.81,0.56-1.05,0.98c-0.25,0.43-0.37,0.92-0.37,1.46c0,0.82,0.28,1.5,0.82,2.04c0.54,0.54,1.3,0.81,2.24,0.81
		c0.52,0,1.03-0.11,1.51-0.31c0.41-0.18,0.8-0.45,1.17-0.79c0.01,0.03,0.01,0.06,0.02,0.09c0.09,0.35,0.16,0.58,0.23,0.73l0.03,0.08
		h2.6l-0.09-0.18C126.12,29.36,125.99,28.96,125.91,28.57z M123.28,25.6v0.31c0,0.58-0.03,0.96-0.09,1.15
		c-0.08,0.29-0.25,0.53-0.51,0.74c-0.37,0.27-0.75,0.4-1.13,0.4c-0.34,0-0.63-0.11-0.84-0.33c-0.22-0.22-0.33-0.48-0.33-0.79
		c0-0.31,0.13-0.56,0.4-0.75c0.19-0.12,0.6-0.26,1.23-0.4C122.53,25.81,122.97,25.7,123.28,25.6z"/>
	<path class="st2" d="M138.14,26.29c-0.11,0.61-0.3,1.04-0.56,1.28c-0.26,0.24-0.6,0.36-1.01,0.36c-0.56,0-0.99-0.2-1.32-0.63
		c-0.33-0.42-0.5-1.17-0.5-2.23c0-0.94,0.17-1.62,0.49-2.02c0.32-0.39,0.74-0.58,1.3-0.58c0.42,0,0.74,0.11,0.99,0.33
		c0.25,0.23,0.41,0.56,0.49,1.01l0.02,0.13l2.57-0.48l-0.04-0.14c-0.28-1.01-0.76-1.77-1.42-2.26c-0.66-0.5-1.54-0.75-2.64-0.75
		c-1.34,0-2.43,0.44-3.22,1.31c-0.79,0.86-1.19,2.09-1.19,3.63c0,1.55,0.39,2.73,1.18,3.61c0.79,0.87,1.86,1.31,3.18,1.31
		c1.16,0,2.1-0.29,2.8-0.87c0.7-0.58,1.17-1.44,1.41-2.56l0.03-0.13l-2.54-0.45L138.14,26.29z"/>
	<path class="st2" d="M146.22,20.31c-0.88,0-1.69,0.21-2.41,0.62c-0.73,0.41-1.27,0.99-1.68,1.78c-0.39,0.77-0.59,1.58-0.59,2.4
		c0,1.06,0.2,1.99,0.59,2.75c0.4,0.76,0.98,1.34,1.73,1.72c0.75,0.39,1.54,0.58,2.37,0.58c1.34,0,2.47-0.47,3.35-1.41
		c0.88-0.93,1.33-2.12,1.33-3.54c0-1.41-0.44-2.6-1.31-3.51C148.73,20.78,147.59,20.31,146.22,20.31z M148.27,25.23
		c0,0.88-0.2,1.56-0.59,2.02c-0.39,0.46-0.87,0.68-1.44,0.68c-0.59,0-1.06-0.22-1.45-0.68c-0.39-0.45-0.59-1.13-0.59-2.01
		c0-0.87,0.2-1.55,0.59-2.01c0.4-0.46,0.88-0.68,1.45-0.68c0.58,0,1.05,0.22,1.44,0.68C148.07,23.7,148.27,24.35,148.27,25.23z"/>
	<path class="st2" d="M155.36,19.98c0-0.54,0.1-0.77,0.19-0.86c0.12-0.13,0.34-0.2,0.64-0.2c0.32,0,0.66,0.05,1.04,0.14l0.13,0.03
		l0.36-1.94l-0.11-0.03c-0.65-0.21-1.32-0.32-1.99-0.32c-0.66,0-1.22,0.13-1.67,0.38c-0.45,0.26-0.76,0.59-0.93,0.99
		c-0.16,0.39-0.25,0.99-0.25,1.78v0.57h-1.3v2.16h1.3v7.28h2.59v-7.28h1.75v-2.17h-1.75V19.98z"/>
	<path class="st2" d="M163.27,17.12c-0.65-0.21-1.32-0.32-1.99-0.32c-0.66,0-1.22,0.13-1.67,0.38c-0.45,0.26-0.76,0.59-0.93,0.99
		c-0.16,0.39-0.25,0.99-0.25,1.78v0.57h-1.3v2.16h1.3v7.28h2.59v-7.28h1.75v-2.17h-1.75v-0.52c0-0.54,0.1-0.77,0.19-0.86
		c0.12-0.13,0.34-0.2,0.64-0.2c0.32,0,0.66,0.05,1.04,0.14l0.13,0.03l0.36-1.94L163.27,17.12z"/>
	<path class="st2" d="M167.33,20.31c-1.21,0-2.22,0.45-3,1.34c-0.78,0.89-1.18,2.12-1.18,3.67c0,1.3,0.3,2.39,0.9,3.24
		c0.76,1.08,1.95,1.62,3.51,1.62c0.99,0,1.83-0.24,2.5-0.72c0.66-0.47,1.16-1.17,1.47-2.09l0.05-0.14l-2.58-0.45l-0.03,0.11
		c-0.12,0.43-0.3,0.75-0.52,0.93c-0.23,0.19-0.51,0.28-0.84,0.28c-0.52,0-0.93-0.18-1.26-0.56c-0.32-0.37-0.5-0.85-0.53-1.47h5.85
		l0-0.13c0.03-1.89-0.35-3.31-1.12-4.24C169.76,20.78,168.68,20.31,167.33,20.31z M165.85,24.33c0.01-0.57,0.17-1.03,0.46-1.36
		c0.31-0.36,0.7-0.53,1.17-0.53c0.45,0,0.81,0.17,1.12,0.51c0.29,0.33,0.45,0.79,0.48,1.39H165.85z"/>
	<path class="st2" d="M181.13,25.94c0.03-1.89-0.35-3.31-1.12-4.24c-0.79-0.93-1.87-1.4-3.21-1.4c-1.21,0-2.22,0.45-3,1.34
		c-0.78,0.89-1.18,2.12-1.18,3.67c0,1.3,0.3,2.39,0.89,3.24c0.77,1.08,1.95,1.62,3.51,1.62c0.99,0,1.83-0.24,2.5-0.72
		c0.66-0.47,1.16-1.17,1.47-2.09l0.05-0.14l-2.58-0.45l-0.03,0.11c-0.12,0.44-0.3,0.75-0.52,0.93c-0.23,0.19-0.51,0.28-0.84,0.28
		c-0.52,0-0.93-0.18-1.26-0.56c-0.32-0.37-0.49-0.85-0.53-1.47h5.85L181.13,25.94z M175.32,24.33c0.01-0.57,0.17-1.03,0.46-1.36
		c0.31-0.36,0.7-0.53,1.17-0.53c0.45,0,0.81,0.17,1.12,0.51c0.29,0.33,0.45,0.79,0.48,1.39H175.32z"/>
</g>
<g>
	<path class="st3" d="M36.24,25.72c-0.01-0.37-0.19-0.69-0.47-0.91c-0.4-0.28-1.06-0.27-1.88,0.04c-0.02,0.69-0.11,1.4-0.25,2.07
		c-0.17,0.83-0.42,1.66-0.73,2.45c1.36-0.23,2.45-0.97,3.02-2.08C36.17,26.79,36.28,26.26,36.24,25.72z"/>
	<path class="st4" d="M17.22,24.65c0,0.19-0.01,0.38-0.01,0.57c0.01,0.59,0.07,1.18,0.21,1.75c0.58,2.4,1.87,4.05,3.42,4.94
		c1.78,1.04,4.07,1.04,5.83-0.02c1.52-0.89,2.76-2.52,3.3-4.9c0.12-0.55,0.18-1.11,0.19-1.67v-0.07c0-0.01,0-0.04,0-0.05
		c0-0.18,0-0.35-0.01-0.53c-0.45,0.23-0.93,0.41-1.43,0.53c-1.63,0.39-3.33,0.58-5.02,0.56c-1.69,0.02-3.38-0.16-5.02-0.55
		c-0.51-0.12-1-0.31-1.46-0.56L17.22,24.65z"/>
	<path class="st5" d="M22.92,9.25c0.25-0.7,0.61-1.36,1.09-1.95c-0.24,0.88-0.36,1.78-0.37,2.69c0.04,1.64,0.82,2.4,1.97,4.41
		c1.66,2.92,0.85,5.75-1.35,8.08c0.79-2.6,1.17-4.27,0.57-6.19c-0.18-0.55-0.42-1.07-0.71-1.58c-0.74-1.32-1.55-2.41-1.48-4.01
		C22.67,10.21,22.76,9.71,22.92,9.25L22.92,9.25L22.92,9.25z"/>
	<path class="st5" d="M21.72,11.18c-0.28,1.78-0.03,2.32,0.56,3.16c0.66,0.92,1.22,1.64,1.38,2.55c0.22,1.27-0.37,2.63-1.15,3.61
		C23.75,14.56,19.05,15.95,21.72,11.18z"/>
	<path class="st2" d="M23.69,36.24c-2.47,0-4.78-0.37-6.51-0.8c-1.45-0.36-2.32-0.79-2.32-1.16c0-0.19,0.28-0.42,0.76-0.65
		c0.83-0.35,1.72-0.6,2.65-0.75c0.51,0.45,1.1,0.85,1.77,1.17c2.26,1.12,5.18,1.11,7.42-0.03c0.63-0.31,1.19-0.69,1.68-1.13
		c0.91,0.15,1.78,0.39,2.59,0.73c0.5,0.24,0.77,0.47,0.77,0.66c0,0.37-0.87,0.8-2.32,1.16C28.47,35.87,26.16,36.24,23.69,36.24z"/>
	<path class="st3" d="M34.04,34.34c0-0.28-0.31-0.63-0.91-0.99c-0.94-0.51-1.97-0.89-3.04-1.11c-0.58,0.66-1.24,1.23-1.97,1.7
		c-2.64,1.72-6.05,1.74-8.71,0.04c-0.77-0.48-1.47-1.08-2.08-1.77c-1.09,0.23-2.14,0.61-3.11,1.13c-0.58,0.35-0.9,0.7-0.9,0.99
		c0,0.56,1.02,1.22,2.72,1.76c2.03,0.65,4.74,1.01,7.64,1.01c2.91,0,5.62-0.36,7.63-1.01C33.03,35.56,34.04,34.9,34.04,34.34z"/>
	<path class="st3" d="M17.48,24.03c-0.54-0.15-1.06-0.34-1.56-0.6c0,0.01,0,0.02,0,0.03c-0.01,0.13-0.01,0.26-0.01,0.4
		c0.01,0.77,0.09,1.55,0.25,2.3c0.65,2.92,2.11,5.22,4.11,6.48c2.12,1.36,4.85,1.35,6.95-0.03c1.96-1.25,3.37-3.53,3.97-6.41
		c0.14-0.72,0.22-1.46,0.22-2.2v-0.09c0-0.01,0-0.05,0-0.09c0-0.12,0-0.25,0-0.37c-0.49,0.25-1,0.45-1.53,0.58
		c-2.03,0.53-4.12,0.77-6.21,0.75C21.6,24.8,19.51,24.55,17.48,24.03z"/>
	<path d="M37.08,25.14c-0.05-0.83-0.47-1.59-1.15-2.08c-0.74-0.53-1.75-0.64-2.91-0.33c-0.02-0.36-0.05-0.7-0.08-1.02v-0.09
		c0-0.14-0.02-0.28-0.06-0.39c-0.02-0.09-0.06-0.19-0.1-0.26c-0.37-0.72-1.36-1.32-2.88-1.76c-0.69-0.19-1.39-0.34-2.1-0.45
		l-0.18-0.03l-0.03,0.18c-0.07,0.35-0.17,0.69-0.3,1.03l-0.08,0.22l0.23,0.04c0.67,0.09,1.33,0.23,1.98,0.41
		c1.5,0.43,1.81,0.8,1.88,0.93l0.01,0.13c-0.07,0.22-0.6,0.59-1.89,0.96c-1.87,0.47-3.78,0.69-5.72,0.66
		c-1.93,0.03-3.86-0.2-5.72-0.67c-1.28-0.37-1.81-0.73-1.89-0.96l0.03-0.16c0.08-0.13,0.43-0.49,1.86-0.9
		c1.06-0.29,2.15-0.48,3.24-0.56l0.15-0.01l0.02-0.15c0.06-0.37,0.09-0.75,0.09-1.13v-0.2l-0.2,0.01c-1.29,0.09-2.57,0.31-3.81,0.65
		c-1.4,0.39-2.37,0.94-2.77,1.58c-0.09,0.09-0.15,0.21-0.18,0.34c-0.06,0.15-0.09,0.31-0.09,0.48v0.02
		c-0.11,0.74-0.16,1.5-0.15,2.25c0.01,0.88,0.1,1.76,0.3,2.62c0.32,1.53,0.9,2.99,1.72,4.33c-1.02,0.26-2,0.64-2.92,1.16
		c-1.11,0.66-1.69,1.48-1.69,2.35c0,1.33,1.36,2.49,3.83,3.28c2.19,0.7,5.08,1.08,8.14,1.08c3.07,0,5.96-0.39,8.14-1.08
		c2.47-0.79,3.84-1.95,3.84-3.28c0-0.88-0.58-1.69-1.69-2.35c-0.89-0.5-1.84-0.88-2.83-1.13c0.04-0.06,0.07-0.12,0.11-0.18
		c2.39-0.04,4.38-1.18,5.35-3.08C36.98,26.83,37.15,25.98,37.08,25.14z M23.69,37.1c-2.9,0-5.61-0.36-7.64-1.01
		c-1.7-0.54-2.72-1.2-2.72-1.76c0-0.28,0.32-0.64,0.9-0.99c0.97-0.53,2.02-0.91,3.11-1.13c0.6,0.69,1.3,1.28,2.08,1.77
		c2.66,1.7,6.08,1.68,8.71-0.04c0.73-0.47,1.4-1.04,1.97-1.7c1.06,0.22,2.09,0.59,3.04,1.11c0.59,0.36,0.91,0.7,0.91,0.99
		c0,0.56-1.02,1.22-2.72,1.76C29.31,36.75,26.59,37.1,23.69,37.1z M31.43,23.44c0,0.13,0,0.26,0,0.37c-0.01,0.04-0.01,0.07,0,0.09
		v0.09c-0.01,0.74-0.08,1.48-0.22,2.2c-0.6,2.89-2.01,5.17-3.97,6.41c-2.11,1.38-4.83,1.4-6.95,0.03c-2-1.26-3.46-3.56-4.11-6.48
		c-0.16-0.76-0.25-1.53-0.25-2.3c0-0.13,0-0.26,0.01-0.4c0-0.01,0-0.02,0-0.03c0.49,0.26,1.01,0.45,1.56,0.6
		c2.03,0.52,4.12,0.77,6.2,0.75c2.09,0.03,4.18-0.22,6.21-0.75C30.43,23.89,30.95,23.69,31.43,23.44z M32.05,28.99
		c0.32-0.8,0.58-1.64,0.75-2.49c0.14-0.69,0.23-1.4,0.26-2.11c0.85-0.31,1.51-0.32,1.92-0.04c0.29,0.23,0.46,0.56,0.48,0.94
		c0.04,0.55-0.07,1.1-0.34,1.59C34.55,28.01,33.44,28.77,32.05,28.99z"/>
</g>
</svg>
